# xmcd
#
# Track frame offsets: 
#        150
#        18525
#        38647
#        55457
#        72207
#        88572
#        105382
#        124085
#        142677
#        161642
#        178325
#        195852
#        212087
#        229982
#        249222
#        262637
#        278872
#        293667
#        306357
#
# Disc length: 4299 seconds
#
# Revision: 4
# Processed by: cddbd v1.5.2PL0 Copyright (c) Steve Scherf et al.
# Submitted via: ExactAudioCopyFreeDBPlugin 1.0
#
DISCID=0310c913,1710c913
DTITLE=Various Artist - Die schönsten deutschen Schlager der 80er - CD 3
DYEAR=1998
DGENRE=Schlager
TTITLE0=Roland Kaiser - Santa Maria
TTITLE1=Roland Kaiser - Lieb' mich ein letztes Mal
TTITLE2=Roland Kaiser - Dich zu lieben
TTITLE3=Roland Kaiser - Wohin gehst du
TTITLE4=Roland Kaiser - Manchmal möchte ich schon mit dir
TTITLE5=Roland Kaiser - Ich will dich
TTITLE6=Roland Kaiser - Midnight Lady (Einsam so wie ich)
TTITLE7=Gitte - Die Frau, die dich liebt
TTITLE8=Gitte - Ich bin stark
TTITLE9=Gitte Haenning - Lampenfieber
TTITLE10=Gitte - Ich will alles
TTITLE11=Gitte - Freu' dich bloß nicht zu früh
TTITLE12=G.G. Anderson - Am weißen Strand von San Angelo
TTITLE13=G.G. Anderson - Sommernacht in Rom
TTITLE14=G.G. Anderson - Mädchen Mädchen
TTITLE15=G.G. Anderson - Ti amo, Maria
TTITLE16=G.G. Anderson - Und dann nehm' ich dich in meine Arme
TTITLE17=Gaby Rückert - Hochzeitmachen
TTITLE18=Gaby Rückert - Seitenflügel Hinterhof
EXTD=
EXTT0=
EXTT1=
EXTT2=
EXTT3=
EXTT4=
EXTT5=
EXTT6=
EXTT7=
EXTT8=
EXTT9=
EXTT10=
EXTT11=
EXTT12=
EXTT13=
EXTT14=
EXTT15=
EXTT16=
EXTT17=
EXTT18=
PLAYORDER=
